<svg xmlns="http://www.w3.org/2000/svg" fill="none" viewBox="0 0 58 40" width="30" height="20"><path fill="#BA0000" fill-rule="evenodd" d="M2.7.2L.5 2.8v34.5L2.7 40H54l2.2-2.6V2.8L54 .2H2.7z" clip-rule="evenodd"/><mask id="a" style="mask-type:luminance" width="57" height="40" x="0" y="0" maskUnits="userSpaceOnUse"><path fill="#fff" fill-rule="evenodd" d="M2.7.2L.5 2.8v34.5L2.7 40H54l2.2-2.6V2.8L54 .2H2.7z" clip-rule="evenodd"/></mask><g mask="url(#a)"><path fill="#FBE0E0" fill-rule="evenodd" d="M-4.4 31.8l64-43L-18-10l13.7 41.7z" clip-rule="evenodd"/></g><path fill="#23262A" fill-rule="evenodd" d="M42.7 25.3l-.6-.8V15l.6-.7H57l.6.7v9.6l-.6.8H42.7z" clip-rule="evenodd"/><g fill-rule="evenodd" clip-rule="evenodd"><path fill="#F8DD3C" d="M47.2 16.9a3 3 0 0 0 0 6.1 3 3 0 0 0 0-6.1"/><path fill="#23262A" d="M47.2 18a2 2 0 0 0 0 4 2 2 0 0 0 0-4"/></g><g fill="#C7EBC5" fill-rule="evenodd" clip-rule="evenodd"><path d="M11.2 35.2a1 1 0 1 1 0-2 1 1 0 0 1 0 2zm5.2 0a1 1 0 1 1 0-2 1 1 0 0 1 0 2zm5.3 0a1 1 0 1 1 0-2 1 1 0 0 1 0 2zm5.3 0a1 1 0 1 1 0-2 1 1 0 0 1 0 2zm5.2 0a1 1 0 1 1 0-2 1 1 0 0 1 0 2zm5.2 0a1 1 0 1 1 0-2 1 1 0 0 1 0 2zm5.3 0a1 1 0 1 1 0-2 1 1 0 0 1 0 2zm5.3 0a1 1 0 1 1 0-2 1 1 0 0 1 0 2zm5.2 0a1 1 0 1 1 0-2 1 1 0 0 1 0 2z"/><path d="M11.2 35.2a1 1 0 1 1 0-2 1 1 0 0 1 0 2zm-4.5 0a1 1 0 1 1 0-2 1 1 0 0 1 0 2z"/></g></svg>